<?xml version="1.0" encoding="us-ascii" standalone="no"?><svg xmlns="http://www.w3.org/2000/svg" xmlns:xlink="http://www.w3.org/1999/xlink" contentStyleType="text/css" height="316px" preserveAspectRatio="none" style="width:2628px;height:316px;background:#FFFFFF;" version="1.1" viewBox="0 0 2628 316" width="2628px" zoomAndPan="magnify"><defs/><g><!--class AbstractFactory--><g id="elem_AbstractFactory"><rect codeLine="1" fill="#F1F1F1" height="129.4844" id="AbstractFactory" rx="2.5" ry="2.5" style="stroke:#181818;stroke-width:0.5;" width="331" x="192" y="7"/><ellipse cx="294.75" cy="23" fill="#ADD1B2" rx="11" ry="11" style="stroke:#181818;stroke-width:1.0;"/><path d="M297.0938,18.6719 C296.1563,18.2344 295.5625,18.0938 294.6875,18.0938 C292.0625,18.0938 290.0625,20.1719 290.0625,22.8906 L290.0625,24.0156 C290.0625,26.5938 292.1719,28.4844 295.0625,28.4844 C296.2813,28.4844 297.4375,28.1875 298.1875,27.6406 C298.7656,27.2344 299.0938,26.7813 299.0938,26.3906 C299.0938,25.9375 298.7031,25.5469 298.2344,25.5469 C298.0156,25.5469 297.8125,25.625 297.625,25.8125 C297.1719,26.2969 297.1719,26.2969 296.9844,26.3906 C296.5625,26.6563 295.875,26.7813 295.1094,26.7813 C293.0625,26.7813 291.7656,25.6875 291.7656,23.9844 L291.7656,22.8906 C291.7656,21.1094 293.0156,19.7969 294.75,19.7969 C295.3281,19.7969 295.9375,19.9531 296.4063,20.2031 C296.8906,20.4844 297.0625,20.7031 297.1563,21.1094 C297.2188,21.5156 297.25,21.6406 297.3906,21.7656 C297.5313,21.9063 297.7656,22.0156 297.9844,22.0156 C298.25,22.0156 298.5156,21.875 298.6875,21.6563 C298.7969,21.5 298.8281,21.3125 298.8281,20.8906 L298.8281,19.4688 C298.8281,19.0313 298.8125,18.9063 298.7188,18.75 C298.5625,18.4844 298.2813,18.3438 297.9844,18.3438 C297.6875,18.3438 297.4844,18.4375 297.2656,18.75 L297.0938,18.6719 Z " fill="#000000"/><text fill="#000000" font-family="sans-serif" font-size="14" lengthAdjust="spacing" textLength="117" x="315.25" y="27.8467">AbstractFactory</text><line style="stroke:#181818;stroke-width:0.5;" x1="193" x2="522" y1="39" y2="39"/><ellipse cx="203" cy="52.6484" fill="none" rx="3" ry="3" style="stroke:#038048;stroke-width:1.0;"/><text fill="#000000" font-family="sans-serif" font-size="14" lengthAdjust="spacing" textLength="76" x="212" y="55.9951">datos: Any</text><line style="stroke:#181818;stroke-width:0.5;" x1="193" x2="522" y1="63.2969" y2="63.2969"/><ellipse cx="203" cy="76.9453" fill="#84BE84" rx="3" ry="3" style="stroke:#038048;stroke-width:1.0;"/><text fill="#000000" font-family="sans-serif" font-size="14" font-style="italic" lengthAdjust="spacing" textLength="230" x="212" y="80.292">calcular_media(): AbstractMedia</text><ellipse cx="203" cy="93.2422" fill="#84BE84" rx="3" ry="3" style="stroke:#038048;stroke-width:1.0;"/><text fill="#000000" font-family="sans-serif" font-size="14" font-style="italic" lengthAdjust="spacing" textLength="266" x="212" y="96.5889">calcular_mediana(): AbstractMediana</text><ellipse cx="203" cy="109.5391" fill="#84BE84" rx="3" ry="3" style="stroke:#038048;stroke-width:1.0;"/><text fill="#000000" font-family="sans-serif" font-size="14" font-style="italic" lengthAdjust="spacing" textLength="305" x="212" y="112.8857">graficar_histograma(): AbstractHistograma</text><ellipse cx="203" cy="125.8359" fill="#84BE84" rx="3" ry="3" style="stroke:#038048;stroke-width:1.0;"/><text fill="#000000" font-family="sans-serif" font-size="14" font-style="italic" lengthAdjust="spacing" textLength="222" x="212" y="129.1826">calcular_moda(): AbstractModa</text></g><!--class ConcreteFactory_HSolicitud--><g id="elem_ConcreteFactory_HSolicitud"><rect codeLine="9" fill="#F1F1F1" height="113.1875" id="ConcreteFactory_HSolicitud" rx="2.5" ry="2.5" style="stroke:#181818;stroke-width:0.5;" width="333" x="7" y="196"/><ellipse cx="69.25" cy="212" fill="#ADD1B2" rx="11" ry="11" style="stroke:#181818;stroke-width:1.0;"/><path d="M71.5938,207.6719 C70.6563,207.2344 70.0625,207.0938 69.1875,207.0938 C66.5625,207.0938 64.5625,209.1719 64.5625,211.8906 L64.5625,213.0156 C64.5625,215.5938 66.6719,217.4844 69.5625,217.4844 C70.7813,217.4844 71.9375,217.1875 72.6875,216.6406 C73.2656,216.2344 73.5938,215.7813 73.5938,215.3906 C73.5938,214.9375 73.2031,214.5469 72.7344,214.5469 C72.5156,214.5469 72.3125,214.625 72.125,214.8125 C71.6719,215.2969 71.6719,215.2969 71.4844,215.3906 C71.0625,215.6563 70.375,215.7813 69.6094,215.7813 C67.5625,215.7813 66.2656,214.6875 66.2656,212.9844 L66.2656,211.8906 C66.2656,210.1094 67.5156,208.7969 69.25,208.7969 C69.8281,208.7969 70.4375,208.9531 70.9063,209.2031 C71.3906,209.4844 71.5625,209.7031 71.6563,210.1094 C71.7188,210.5156 71.75,210.6406 71.8906,210.7656 C72.0313,210.9063 72.2656,211.0156 72.4844,211.0156 C72.75,211.0156 73.0156,210.875 73.1875,210.6563 C73.2969,210.5 73.3281,210.3125 73.3281,209.8906 L73.3281,208.4688 C73.3281,208.0313 73.3125,207.9063 73.2188,207.75 C73.0625,207.4844 72.7813,207.3438 72.4844,207.3438 C72.1875,207.3438 71.9844,207.4375 71.7656,207.75 L71.5938,207.6719 Z " fill="#000000"/><text fill="#000000" font-family="sans-serif" font-size="14" lengthAdjust="spacing" textLength="200" x="89.75" y="216.8467">ConcreteFactory_HSolicitud</text><line style="stroke:#181818;stroke-width:0.5;" x1="8" x2="339" y1="228" y2="228"/><line style="stroke:#181818;stroke-width:0.5;" x1="8" x2="339" y1="236" y2="236"/><ellipse cx="18" cy="249.6484" fill="#84BE84" rx="3" ry="3" style="stroke:#038048;stroke-width:1.0;"/><text fill="#000000" font-family="sans-serif" font-size="14" lengthAdjust="spacing" textLength="229" x="27" y="252.9951">calcular_media(): AbstractMedia</text><ellipse cx="18" cy="265.9453" fill="#84BE84" rx="3" ry="3" style="stroke:#038048;stroke-width:1.0;"/><text fill="#000000" font-family="sans-serif" font-size="14" lengthAdjust="spacing" textLength="263" x="27" y="269.292">calcular_mediana(): AbstractMediana</text><ellipse cx="18" cy="282.2422" fill="#84BE84" rx="3" ry="3" style="stroke:#038048;stroke-width:1.0;"/><text fill="#000000" font-family="sans-serif" font-size="14" lengthAdjust="spacing" textLength="221" x="27" y="285.5889">calcular_moda(): AbstractModa</text><ellipse cx="18" cy="298.5391" fill="#84BE84" rx="3" ry="3" style="stroke:#038048;stroke-width:1.0;"/><text fill="#000000" font-family="sans-serif" font-size="14" lengthAdjust="spacing" textLength="307" x="27" y="301.8857">graficar_histograma(): AbstractHistograma</text></g><!--class ConcreteFactory_HIntervencion--><g id="elem_ConcreteFactory_HIntervencion"><rect codeLine="16" fill="#F1F1F1" height="113.1875" id="ConcreteFactory_HIntervencion" rx="2.5" ry="2.5" style="stroke:#181818;stroke-width:0.5;" width="333" x="375" y="196"/><ellipse cx="422.75" cy="212" fill="#ADD1B2" rx="11" ry="11" style="stroke:#181818;stroke-width:1.0;"/><path d="M425.0938,207.6719 C424.1563,207.2344 423.5625,207.0938 422.6875,207.0938 C420.0625,207.0938 418.0625,209.1719 418.0625,211.8906 L418.0625,213.0156 C418.0625,215.5938 420.1719,217.4844 423.0625,217.4844 C424.2813,217.4844 425.4375,217.1875 426.1875,216.6406 C426.7656,216.2344 427.0938,215.7813 427.0938,215.3906 C427.0938,214.9375 426.7031,214.5469 426.2344,214.5469 C426.0156,214.5469 425.8125,214.625 425.625,214.8125 C425.1719,215.2969 425.1719,215.2969 424.9844,215.3906 C424.5625,215.6563 423.875,215.7813 423.1094,215.7813 C421.0625,215.7813 419.7656,214.6875 419.7656,212.9844 L419.7656,211.8906 C419.7656,210.1094 421.0156,208.7969 422.75,208.7969 C423.3281,208.7969 423.9375,208.9531 424.4063,209.2031 C424.8906,209.4844 425.0625,209.7031 425.1563,210.1094 C425.2188,210.5156 425.25,210.6406 425.3906,210.7656 C425.5313,210.9063 425.7656,211.0156 425.9844,211.0156 C426.25,211.0156 426.5156,210.875 426.6875,210.6563 C426.7969,210.5 426.8281,210.3125 426.8281,209.8906 L426.8281,208.4688 C426.8281,208.0313 426.8125,207.9063 426.7188,207.75 C426.5625,207.4844 426.2813,207.3438 425.9844,207.3438 C425.6875,207.3438 425.4844,207.4375 425.2656,207.75 L425.0938,207.6719 Z " fill="#000000"/><text fill="#000000" font-family="sans-serif" font-size="14" lengthAdjust="spacing" textLength="229" x="443.25" y="216.8467">ConcreteFactory_HIntervencion</text><line style="stroke:#181818;stroke-width:0.5;" x1="376" x2="707" y1="228" y2="228"/><line style="stroke:#181818;stroke-width:0.5;" x1="376" x2="707" y1="236" y2="236"/><ellipse cx="386" cy="249.6484" fill="#84BE84" rx="3" ry="3" style="stroke:#038048;stroke-width:1.0;"/><text fill="#000000" font-family="sans-serif" font-size="14" lengthAdjust="spacing" textLength="229" x="395" y="252.9951">calcular_media(): AbstractMedia</text><ellipse cx="386" cy="265.9453" fill="#84BE84" rx="3" ry="3" style="stroke:#038048;stroke-width:1.0;"/><text fill="#000000" font-family="sans-serif" font-size="14" lengthAdjust="spacing" textLength="263" x="395" y="269.292">calcular_mediana(): AbstractMediana</text><ellipse cx="386" cy="282.2422" fill="#84BE84" rx="3" ry="3" style="stroke:#038048;stroke-width:1.0;"/><text fill="#000000" font-family="sans-serif" font-size="14" lengthAdjust="spacing" textLength="221" x="395" y="285.5889">calcular_moda(): AbstractModa</text><ellipse cx="386" cy="298.5391" fill="#84BE84" rx="3" ry="3" style="stroke:#038048;stroke-width:1.0;"/><text fill="#000000" font-family="sans-serif" font-size="14" lengthAdjust="spacing" textLength="307" x="395" y="301.8857">graficar_histograma(): AbstractHistograma</text></g><!--class AbstractMedia--><g id="elem_AbstractMedia"><rect codeLine="23" fill="#F1F1F1" height="80.5938" id="AbstractMedia" rx="2.5" ry="2.5" style="stroke:#181818;stroke-width:0.5;" width="181" x="856" y="31"/><ellipse cx="890.8" cy="47" fill="#ADD1B2" rx="11" ry="11" style="stroke:#181818;stroke-width:1.0;"/><path d="M893.1438,42.6719 C892.2063,42.2344 891.6125,42.0938 890.7375,42.0938 C888.1125,42.0938 886.1125,44.1719 886.1125,46.8906 L886.1125,48.0156 C886.1125,50.5938 888.2219,52.4844 891.1125,52.4844 C892.3313,52.4844 893.4875,52.1875 894.2375,51.6406 C894.8156,51.2344 895.1438,50.7813 895.1438,50.3906 C895.1438,49.9375 894.7531,49.5469 894.2844,49.5469 C894.0656,49.5469 893.8625,49.625 893.675,49.8125 C893.2219,50.2969 893.2219,50.2969 893.0344,50.3906 C892.6125,50.6563 891.925,50.7813 891.1594,50.7813 C889.1125,50.7813 887.8156,49.6875 887.8156,47.9844 L887.8156,46.8906 C887.8156,45.1094 889.0656,43.7969 890.8,43.7969 C891.3781,43.7969 891.9875,43.9531 892.4563,44.2031 C892.9406,44.4844 893.1125,44.7031 893.2063,45.1094 C893.2688,45.5156 893.3,45.6406 893.4406,45.7656 C893.5813,45.9063 893.8156,46.0156 894.0344,46.0156 C894.3,46.0156 894.5656,45.875 894.7375,45.6563 C894.8469,45.5 894.8781,45.3125 894.8781,44.8906 L894.8781,43.4688 C894.8781,43.0313 894.8625,42.9063 894.7688,42.75 C894.6125,42.4844 894.3313,42.3438 894.0344,42.3438 C893.7375,42.3438 893.5344,42.4375 893.3156,42.75 L893.1438,42.6719 Z " fill="#000000"/><text fill="#000000" font-family="sans-serif" font-size="14" lengthAdjust="spacing" textLength="105" x="909.2" y="51.8467">AbstractMedia</text><line style="stroke:#181818;stroke-width:0.5;" x1="857" x2="1036" y1="63" y2="63"/><ellipse cx="867" cy="76.6484" fill="none" rx="3" ry="3" style="stroke:#038048;stroke-width:1.0;"/><text fill="#000000" font-family="sans-serif" font-size="14" lengthAdjust="spacing" textLength="76" x="876" y="79.9951">datos: Any</text><line style="stroke:#181818;stroke-width:0.5;" x1="857" x2="1036" y1="87.2969" y2="87.2969"/><ellipse cx="867" cy="100.9453" fill="#84BE84" rx="3" ry="3" style="stroke:#038048;stroke-width:1.0;"/><text fill="#000000" font-family="sans-serif" font-size="14" font-style="italic" lengthAdjust="spacing" textLength="155" x="876" y="104.292">calcular_media(): Any</text></g><!--class ConcreteMedia_HSol--><g id="elem_ConcreteMedia_HSol"><rect codeLine="28" fill="#F1F1F1" height="64.2969" id="ConcreteMedia_HSol" rx="2.5" ry="2.5" style="stroke:#181818;stroke-width:0.5;" width="180" x="743.5" y="220.5"/><ellipse cx="758.5" cy="236.5" fill="#ADD1B2" rx="11" ry="11" style="stroke:#181818;stroke-width:1.0;"/><path d="M760.8438,232.1719 C759.9063,231.7344 759.3125,231.5938 758.4375,231.5938 C755.8125,231.5938 753.8125,233.6719 753.8125,236.3906 L753.8125,237.5156 C753.8125,240.0938 755.9219,241.9844 758.8125,241.9844 C760.0313,241.9844 761.1875,241.6875 761.9375,241.1406 C762.5156,240.7344 762.8438,240.2813 762.8438,239.8906 C762.8438,239.4375 762.4531,239.0469 761.9844,239.0469 C761.7656,239.0469 761.5625,239.125 761.375,239.3125 C760.9219,239.7969 760.9219,239.7969 760.7344,239.8906 C760.3125,240.1563 759.625,240.2813 758.8594,240.2813 C756.8125,240.2813 755.5156,239.1875 755.5156,237.4844 L755.5156,236.3906 C755.5156,234.6094 756.7656,233.2969 758.5,233.2969 C759.0781,233.2969 759.6875,233.4531 760.1563,233.7031 C760.6406,233.9844 760.8125,234.2031 760.9063,234.6094 C760.9688,235.0156 761,235.1406 761.1406,235.2656 C761.2813,235.4063 761.5156,235.5156 761.7344,235.5156 C762,235.5156 762.2656,235.375 762.4375,235.1563 C762.5469,235 762.5781,234.8125 762.5781,234.3906 L762.5781,232.9688 C762.5781,232.5313 762.5625,232.4063 762.4688,232.25 C762.3125,231.9844 762.0313,231.8438 761.7344,231.8438 C761.4375,231.8438 761.2344,231.9375 761.0156,232.25 L760.8438,232.1719 Z " fill="#000000"/><text fill="#000000" font-family="sans-serif" font-size="14" lengthAdjust="spacing" textLength="148" x="772.5" y="241.3467">ConcreteMedia_HSol</text><line style="stroke:#181818;stroke-width:0.5;" x1="744.5" x2="922.5" y1="252.5" y2="252.5"/><line style="stroke:#181818;stroke-width:0.5;" x1="744.5" x2="922.5" y1="260.5" y2="260.5"/><ellipse cx="754.5" cy="274.1484" fill="#84BE84" rx="3" ry="3" style="stroke:#038048;stroke-width:1.0;"/><text fill="#000000" font-family="sans-serif" font-size="14" lengthAdjust="spacing" textLength="151" x="763.5" y="277.4951">calcular_media(): Any</text></g><!--class ConcreteMedia_HInterv--><g id="elem_ConcreteMedia_HInterv"><rect codeLine="32" fill="#F1F1F1" height="64.2969" id="ConcreteMedia_HInterv" rx="2.5" ry="2.5" style="stroke:#181818;stroke-width:0.5;" width="201" x="959" y="220.5"/><ellipse cx="974" cy="236.5" fill="#ADD1B2" rx="11" ry="11" style="stroke:#181818;stroke-width:1.0;"/><path d="M976.3438,232.1719 C975.4063,231.7344 974.8125,231.5938 973.9375,231.5938 C971.3125,231.5938 969.3125,233.6719 969.3125,236.3906 L969.3125,237.5156 C969.3125,240.0938 971.4219,241.9844 974.3125,241.9844 C975.5313,241.9844 976.6875,241.6875 977.4375,241.1406 C978.0156,240.7344 978.3438,240.2813 978.3438,239.8906 C978.3438,239.4375 977.9531,239.0469 977.4844,239.0469 C977.2656,239.0469 977.0625,239.125 976.875,239.3125 C976.4219,239.7969 976.4219,239.7969 976.2344,239.8906 C975.8125,240.1563 975.125,240.2813 974.3594,240.2813 C972.3125,240.2813 971.0156,239.1875 971.0156,237.4844 L971.0156,236.3906 C971.0156,234.6094 972.2656,233.2969 974,233.2969 C974.5781,233.2969 975.1875,233.4531 975.6563,233.7031 C976.1406,233.9844 976.3125,234.2031 976.4063,234.6094 C976.4688,235.0156 976.5,235.1406 976.6406,235.2656 C976.7813,235.4063 977.0156,235.5156 977.2344,235.5156 C977.5,235.5156 977.7656,235.375 977.9375,235.1563 C978.0469,235 978.0781,234.8125 978.0781,234.3906 L978.0781,232.9688 C978.0781,232.5313 978.0625,232.4063 977.9688,232.25 C977.8125,231.9844 977.5313,231.8438 977.2344,231.8438 C976.9375,231.8438 976.7344,231.9375 976.5156,232.25 L976.3438,232.1719 Z " fill="#000000"/><text fill="#000000" font-family="sans-serif" font-size="14" lengthAdjust="spacing" textLength="169" x="988" y="241.3467">ConcreteMedia_HInterv</text><line style="stroke:#181818;stroke-width:0.5;" x1="960" x2="1159" y1="252.5" y2="252.5"/><line style="stroke:#181818;stroke-width:0.5;" x1="960" x2="1159" y1="260.5" y2="260.5"/><ellipse cx="970" cy="274.1484" fill="#84BE84" rx="3" ry="3" style="stroke:#038048;stroke-width:1.0;"/><text fill="#000000" font-family="sans-serif" font-size="14" lengthAdjust="spacing" textLength="151" x="979" y="277.4951">calcular_media(): Any</text></g><!--class AbstractMediana--><g id="elem_AbstractMediana"><rect codeLine="36" fill="#F1F1F1" height="80.5938" id="AbstractMediana" rx="2.5" ry="2.5" style="stroke:#181818;stroke-width:0.5;" width="199" x="1315" y="31"/><ellipse cx="1350.25" cy="47" fill="#ADD1B2" rx="11" ry="11" style="stroke:#181818;stroke-width:1.0;"/><path d="M1352.5938,42.6719 C1351.6563,42.2344 1351.0625,42.0938 1350.1875,42.0938 C1347.5625,42.0938 1345.5625,44.1719 1345.5625,46.8906 L1345.5625,48.0156 C1345.5625,50.5938 1347.6719,52.4844 1350.5625,52.4844 C1351.7813,52.4844 1352.9375,52.1875 1353.6875,51.6406 C1354.2656,51.2344 1354.5938,50.7813 1354.5938,50.3906 C1354.5938,49.9375 1354.2031,49.5469 1353.7344,49.5469 C1353.5156,49.5469 1353.3125,49.625 1353.125,49.8125 C1352.6719,50.2969 1352.6719,50.2969 1352.4844,50.3906 C1352.0625,50.6563 1351.375,50.7813 1350.6094,50.7813 C1348.5625,50.7813 1347.2656,49.6875 1347.2656,47.9844 L1347.2656,46.8906 C1347.2656,45.1094 1348.5156,43.7969 1350.25,43.7969 C1350.8281,43.7969 1351.4375,43.9531 1351.9063,44.2031 C1352.3906,44.4844 1352.5625,44.7031 1352.6563,45.1094 C1352.7188,45.5156 1352.75,45.6406 1352.8906,45.7656 C1353.0313,45.9063 1353.2656,46.0156 1353.4844,46.0156 C1353.75,46.0156 1354.0156,45.875 1354.1875,45.6563 C1354.2969,45.5 1354.3281,45.3125 1354.3281,44.8906 L1354.3281,43.4688 C1354.3281,43.0313 1354.3125,42.9063 1354.2188,42.75 C1354.0625,42.4844 1353.7813,42.3438 1353.4844,42.3438 C1353.1875,42.3438 1352.9844,42.4375 1352.7656,42.75 L1352.5938,42.6719 Z " fill="#000000"/><text fill="#000000" font-family="sans-serif" font-size="14" lengthAdjust="spacing" textLength="122" x="1368.75" y="51.8467">AbstractMediana</text><line style="stroke:#181818;stroke-width:0.5;" x1="1316" x2="1513" y1="63" y2="63"/><ellipse cx="1326" cy="76.6484" fill="none" rx="3" ry="3" style="stroke:#038048;stroke-width:1.0;"/><text fill="#000000" font-family="sans-serif" font-size="14" lengthAdjust="spacing" textLength="76" x="1335" y="79.9951">datos: Any</text><line style="stroke:#181818;stroke-width:0.5;" x1="1316" x2="1513" y1="87.2969" y2="87.2969"/><ellipse cx="1326" cy="100.9453" fill="#84BE84" rx="3" ry="3" style="stroke:#038048;stroke-width:1.0;"/><text fill="#000000" font-family="sans-serif" font-size="14" font-style="italic" lengthAdjust="spacing" textLength="173" x="1335" y="104.292">calcular_mediana(): Any</text></g><!--class ConcreteMediana_HSol--><g id="elem_ConcreteMediana_HSol"><rect codeLine="41" fill="#F1F1F1" height="64.2969" id="ConcreteMediana_HSol" rx="2.5" ry="2.5" style="stroke:#181818;stroke-width:0.5;" width="197" x="1195" y="220.5"/><ellipse cx="1210" cy="236.5" fill="#ADD1B2" rx="11" ry="11" style="stroke:#181818;stroke-width:1.0;"/><path d="M1212.3438,232.1719 C1211.4063,231.7344 1210.8125,231.5938 1209.9375,231.5938 C1207.3125,231.5938 1205.3125,233.6719 1205.3125,236.3906 L1205.3125,237.5156 C1205.3125,240.0938 1207.4219,241.9844 1210.3125,241.9844 C1211.5313,241.9844 1212.6875,241.6875 1213.4375,241.1406 C1214.0156,240.7344 1214.3438,240.2813 1214.3438,239.8906 C1214.3438,239.4375 1213.9531,239.0469 1213.4844,239.0469 C1213.2656,239.0469 1213.0625,239.125 1212.875,239.3125 C1212.4219,239.7969 1212.4219,239.7969 1212.2344,239.8906 C1211.8125,240.1563 1211.125,240.2813 1210.3594,240.2813 C1208.3125,240.2813 1207.0156,239.1875 1207.0156,237.4844 L1207.0156,236.3906 C1207.0156,234.6094 1208.2656,233.2969 1210,233.2969 C1210.5781,233.2969 1211.1875,233.4531 1211.6563,233.7031 C1212.1406,233.9844 1212.3125,234.2031 1212.4063,234.6094 C1212.4688,235.0156 1212.5,235.1406 1212.6406,235.2656 C1212.7813,235.4063 1213.0156,235.5156 1213.2344,235.5156 C1213.5,235.5156 1213.7656,235.375 1213.9375,235.1563 C1214.0469,235 1214.0781,234.8125 1214.0781,234.3906 L1214.0781,232.9688 C1214.0781,232.5313 1214.0625,232.4063 1213.9688,232.25 C1213.8125,231.9844 1213.5313,231.8438 1213.2344,231.8438 C1212.9375,231.8438 1212.7344,231.9375 1212.5156,232.25 L1212.3438,232.1719 Z " fill="#000000"/><text fill="#000000" font-family="sans-serif" font-size="14" lengthAdjust="spacing" textLength="165" x="1224" y="241.3467">ConcreteMediana_HSol</text><line style="stroke:#181818;stroke-width:0.5;" x1="1196" x2="1391" y1="252.5" y2="252.5"/><line style="stroke:#181818;stroke-width:0.5;" x1="1196" x2="1391" y1="260.5" y2="260.5"/><ellipse cx="1206" cy="274.1484" fill="#84BE84" rx="3" ry="3" style="stroke:#038048;stroke-width:1.0;"/><text fill="#000000" font-family="sans-serif" font-size="14" lengthAdjust="spacing" textLength="168" x="1215" y="277.4951">calcular_mediana(): Any</text></g><!--class ConcreteMediana_HInterv--><g id="elem_ConcreteMediana_HInterv"><rect codeLine="45" fill="#F1F1F1" height="64.2969" id="ConcreteMediana_HInterv" rx="2.5" ry="2.5" style="stroke:#181818;stroke-width:0.5;" width="218" x="1427.5" y="220.5"/><ellipse cx="1442.5" cy="236.5" fill="#ADD1B2" rx="11" ry="11" style="stroke:#181818;stroke-width:1.0;"/><path d="M1444.8438,232.1719 C1443.9063,231.7344 1443.3125,231.5938 1442.4375,231.5938 C1439.8125,231.5938 1437.8125,233.6719 1437.8125,236.3906 L1437.8125,237.5156 C1437.8125,240.0938 1439.9219,241.9844 1442.8125,241.9844 C1444.0313,241.9844 1445.1875,241.6875 1445.9375,241.1406 C1446.5156,240.7344 1446.8438,240.2813 1446.8438,239.8906 C1446.8438,239.4375 1446.4531,239.0469 1445.9844,239.0469 C1445.7656,239.0469 1445.5625,239.125 1445.375,239.3125 C1444.9219,239.7969 1444.9219,239.7969 1444.7344,239.8906 C1444.3125,240.1563 1443.625,240.2813 1442.8594,240.2813 C1440.8125,240.2813 1439.5156,239.1875 1439.5156,237.4844 L1439.5156,236.3906 C1439.5156,234.6094 1440.7656,233.2969 1442.5,233.2969 C1443.0781,233.2969 1443.6875,233.4531 1444.1563,233.7031 C1444.6406,233.9844 1444.8125,234.2031 1444.9063,234.6094 C1444.9688,235.0156 1445,235.1406 1445.1406,235.2656 C1445.2813,235.4063 1445.5156,235.5156 1445.7344,235.5156 C1446,235.5156 1446.2656,235.375 1446.4375,235.1563 C1446.5469,235 1446.5781,234.8125 1446.5781,234.3906 L1446.5781,232.9688 C1446.5781,232.5313 1446.5625,232.4063 1446.4688,232.25 C1446.3125,231.9844 1446.0313,231.8438 1445.7344,231.8438 C1445.4375,231.8438 1445.2344,231.9375 1445.0156,232.25 L1444.8438,232.1719 Z " fill="#000000"/><text fill="#000000" font-family="sans-serif" font-size="14" lengthAdjust="spacing" textLength="186" x="1456.5" y="241.3467">ConcreteMediana_HInterv</text><line style="stroke:#181818;stroke-width:0.5;" x1="1428.5" x2="1644.5" y1="252.5" y2="252.5"/><line style="stroke:#181818;stroke-width:0.5;" x1="1428.5" x2="1644.5" y1="260.5" y2="260.5"/><ellipse cx="1438.5" cy="274.1484" fill="#84BE84" rx="3" ry="3" style="stroke:#038048;stroke-width:1.0;"/><text fill="#000000" font-family="sans-serif" font-size="14" lengthAdjust="spacing" textLength="168" x="1447.5" y="277.4951">calcular_mediana(): Any</text></g><!--class AbstractModa--><g id="elem_AbstractModa"><rect codeLine="49" fill="#F1F1F1" height="80.5938" id="AbstractModa" rx="2.5" ry="2.5" style="stroke:#181818;stroke-width:0.5;" width="177" x="1791" y="31"/><ellipse cx="1825.8" cy="47" fill="#ADD1B2" rx="11" ry="11" style="stroke:#181818;stroke-width:1.0;"/><path d="M1828.1438,42.6719 C1827.2063,42.2344 1826.6125,42.0938 1825.7375,42.0938 C1823.1125,42.0938 1821.1125,44.1719 1821.1125,46.8906 L1821.1125,48.0156 C1821.1125,50.5938 1823.2219,52.4844 1826.1125,52.4844 C1827.3313,52.4844 1828.4875,52.1875 1829.2375,51.6406 C1829.8156,51.2344 1830.1438,50.7813 1830.1438,50.3906 C1830.1438,49.9375 1829.7531,49.5469 1829.2844,49.5469 C1829.0656,49.5469 1828.8625,49.625 1828.675,49.8125 C1828.2219,50.2969 1828.2219,50.2969 1828.0344,50.3906 C1827.6125,50.6563 1826.925,50.7813 1826.1594,50.7813 C1824.1125,50.7813 1822.8156,49.6875 1822.8156,47.9844 L1822.8156,46.8906 C1822.8156,45.1094 1824.0656,43.7969 1825.8,43.7969 C1826.3781,43.7969 1826.9875,43.9531 1827.4563,44.2031 C1827.9406,44.4844 1828.1125,44.7031 1828.2063,45.1094 C1828.2688,45.5156 1828.3,45.6406 1828.4406,45.7656 C1828.5813,45.9063 1828.8156,46.0156 1829.0344,46.0156 C1829.3,46.0156 1829.5656,45.875 1829.7375,45.6563 C1829.8469,45.5 1829.8781,45.3125 1829.8781,44.8906 L1829.8781,43.4688 C1829.8781,43.0313 1829.8625,42.9063 1829.7688,42.75 C1829.6125,42.4844 1829.3313,42.3438 1829.0344,42.3438 C1828.7375,42.3438 1828.5344,42.4375 1828.3156,42.75 L1828.1438,42.6719 Z " fill="#000000"/><text fill="#000000" font-family="sans-serif" font-size="14" lengthAdjust="spacing" textLength="101" x="1844.2" y="51.8467">AbstractModa</text><line style="stroke:#181818;stroke-width:0.5;" x1="1792" x2="1967" y1="63" y2="63"/><ellipse cx="1802" cy="76.6484" fill="none" rx="3" ry="3" style="stroke:#038048;stroke-width:1.0;"/><text fill="#000000" font-family="sans-serif" font-size="14" lengthAdjust="spacing" textLength="76" x="1811" y="79.9951">datos: Any</text><line style="stroke:#181818;stroke-width:0.5;" x1="1792" x2="1967" y1="87.2969" y2="87.2969"/><ellipse cx="1802" cy="100.9453" fill="#84BE84" rx="3" ry="3" style="stroke:#038048;stroke-width:1.0;"/><text fill="#000000" font-family="sans-serif" font-size="14" font-style="italic" lengthAdjust="spacing" textLength="151" x="1811" y="104.292">calcular_moda(): Any</text></g><!--class ConcreteModa_HSol--><g id="elem_ConcreteModa_HSol"><rect codeLine="54" fill="#F1F1F1" height="64.2969" id="ConcreteModa_HSol" rx="2.5" ry="2.5" style="stroke:#181818;stroke-width:0.5;" width="176" x="1680.5" y="220.5"/><ellipse cx="1695.5" cy="236.5" fill="#ADD1B2" rx="11" ry="11" style="stroke:#181818;stroke-width:1.0;"/><path d="M1697.8438,232.1719 C1696.9063,231.7344 1696.3125,231.5938 1695.4375,231.5938 C1692.8125,231.5938 1690.8125,233.6719 1690.8125,236.3906 L1690.8125,237.5156 C1690.8125,240.0938 1692.9219,241.9844 1695.8125,241.9844 C1697.0313,241.9844 1698.1875,241.6875 1698.9375,241.1406 C1699.5156,240.7344 1699.8438,240.2813 1699.8438,239.8906 C1699.8438,239.4375 1699.4531,239.0469 1698.9844,239.0469 C1698.7656,239.0469 1698.5625,239.125 1698.375,239.3125 C1697.9219,239.7969 1697.9219,239.7969 1697.7344,239.8906 C1697.3125,240.1563 1696.625,240.2813 1695.8594,240.2813 C1693.8125,240.2813 1692.5156,239.1875 1692.5156,237.4844 L1692.5156,236.3906 C1692.5156,234.6094 1693.7656,233.2969 1695.5,233.2969 C1696.0781,233.2969 1696.6875,233.4531 1697.1563,233.7031 C1697.6406,233.9844 1697.8125,234.2031 1697.9063,234.6094 C1697.9688,235.0156 1698,235.1406 1698.1406,235.2656 C1698.2813,235.4063 1698.5156,235.5156 1698.7344,235.5156 C1699,235.5156 1699.2656,235.375 1699.4375,235.1563 C1699.5469,235 1699.5781,234.8125 1699.5781,234.3906 L1699.5781,232.9688 C1699.5781,232.5313 1699.5625,232.4063 1699.4688,232.25 C1699.3125,231.9844 1699.0313,231.8438 1698.7344,231.8438 C1698.4375,231.8438 1698.2344,231.9375 1698.0156,232.25 L1697.8438,232.1719 Z " fill="#000000"/><text fill="#000000" font-family="sans-serif" font-size="14" lengthAdjust="spacing" textLength="144" x="1709.5" y="241.3467">ConcreteModa_HSol</text><line style="stroke:#181818;stroke-width:0.5;" x1="1681.5" x2="1855.5" y1="252.5" y2="252.5"/><line style="stroke:#181818;stroke-width:0.5;" x1="1681.5" x2="1855.5" y1="260.5" y2="260.5"/><ellipse cx="1691.5" cy="274.1484" fill="#84BE84" rx="3" ry="3" style="stroke:#038048;stroke-width:1.0;"/><text fill="#000000" font-family="sans-serif" font-size="14" lengthAdjust="spacing" textLength="147" x="1700.5" y="277.4951">calcular_moda(): Any</text></g><!--class ConcreteModa_HInterv--><g id="elem_ConcreteModa_HInterv"><rect codeLine="58" fill="#F1F1F1" height="64.2969" id="ConcreteModa_HInterv" rx="2.5" ry="2.5" style="stroke:#181818;stroke-width:0.5;" width="197" x="1892" y="220.5"/><ellipse cx="1907" cy="236.5" fill="#ADD1B2" rx="11" ry="11" style="stroke:#181818;stroke-width:1.0;"/><path d="M1909.3438,232.1719 C1908.4063,231.7344 1907.8125,231.5938 1906.9375,231.5938 C1904.3125,231.5938 1902.3125,233.6719 1902.3125,236.3906 L1902.3125,237.5156 C1902.3125,240.0938 1904.4219,241.9844 1907.3125,241.9844 C1908.5313,241.9844 1909.6875,241.6875 1910.4375,241.1406 C1911.0156,240.7344 1911.3438,240.2813 1911.3438,239.8906 C1911.3438,239.4375 1910.9531,239.0469 1910.4844,239.0469 C1910.2656,239.0469 1910.0625,239.125 1909.875,239.3125 C1909.4219,239.7969 1909.4219,239.7969 1909.2344,239.8906 C1908.8125,240.1563 1908.125,240.2813 1907.3594,240.2813 C1905.3125,240.2813 1904.0156,239.1875 1904.0156,237.4844 L1904.0156,236.3906 C1904.0156,234.6094 1905.2656,233.2969 1907,233.2969 C1907.5781,233.2969 1908.1875,233.4531 1908.6563,233.7031 C1909.1406,233.9844 1909.3125,234.2031 1909.4063,234.6094 C1909.4688,235.0156 1909.5,235.1406 1909.6406,235.2656 C1909.7813,235.4063 1910.0156,235.5156 1910.2344,235.5156 C1910.5,235.5156 1910.7656,235.375 1910.9375,235.1563 C1911.0469,235 1911.0781,234.8125 1911.0781,234.3906 L1911.0781,232.9688 C1911.0781,232.5313 1911.0625,232.4063 1910.9688,232.25 C1910.8125,231.9844 1910.5313,231.8438 1910.2344,231.8438 C1909.9375,231.8438 1909.7344,231.9375 1909.5156,232.25 L1909.3438,232.1719 Z " fill="#000000"/><text fill="#000000" font-family="sans-serif" font-size="14" lengthAdjust="spacing" textLength="165" x="1921" y="241.3467">ConcreteModa_HInterv</text><line style="stroke:#181818;stroke-width:0.5;" x1="1893" x2="2088" y1="252.5" y2="252.5"/><line style="stroke:#181818;stroke-width:0.5;" x1="1893" x2="2088" y1="260.5" y2="260.5"/><ellipse cx="1903" cy="274.1484" fill="#84BE84" rx="3" ry="3" style="stroke:#038048;stroke-width:1.0;"/><text fill="#000000" font-family="sans-serif" font-size="14" lengthAdjust="spacing" textLength="147" x="1912" y="277.4951">calcular_moda(): Any</text></g><!--class AbstractHistograma--><g id="elem_AbstractHistograma"><rect codeLine="62" fill="#F1F1F1" height="80.5938" id="AbstractHistograma" rx="2.5" ry="2.5" style="stroke:#181818;stroke-width:0.5;" width="216" x="2259.5" y="31"/><ellipse cx="2292.05" cy="47" fill="#ADD1B2" rx="11" ry="11" style="stroke:#181818;stroke-width:1.0;"/><path d="M2294.3938,42.6719 C2293.4563,42.2344 2292.8625,42.0938 2291.9875,42.0938 C2289.3625,42.0938 2287.3625,44.1719 2287.3625,46.8906 L2287.3625,48.0156 C2287.3625,50.5938 2289.4719,52.4844 2292.3625,52.4844 C2293.5813,52.4844 2294.7375,52.1875 2295.4875,51.6406 C2296.0656,51.2344 2296.3938,50.7813 2296.3938,50.3906 C2296.3938,49.9375 2296.0031,49.5469 2295.5344,49.5469 C2295.3156,49.5469 2295.1125,49.625 2294.925,49.8125 C2294.4719,50.2969 2294.4719,50.2969 2294.2844,50.3906 C2293.8625,50.6563 2293.175,50.7813 2292.4094,50.7813 C2290.3625,50.7813 2289.0656,49.6875 2289.0656,47.9844 L2289.0656,46.8906 C2289.0656,45.1094 2290.3156,43.7969 2292.05,43.7969 C2292.6281,43.7969 2293.2375,43.9531 2293.7063,44.2031 C2294.1906,44.4844 2294.3625,44.7031 2294.4563,45.1094 C2294.5188,45.5156 2294.55,45.6406 2294.6906,45.7656 C2294.8313,45.9063 2295.0656,46.0156 2295.2844,46.0156 C2295.55,46.0156 2295.8156,45.875 2295.9875,45.6563 C2296.0969,45.5 2296.1281,45.3125 2296.1281,44.8906 L2296.1281,43.4688 C2296.1281,43.0313 2296.1125,42.9063 2296.0188,42.75 C2295.8625,42.4844 2295.5813,42.3438 2295.2844,42.3438 C2294.9875,42.3438 2294.7844,42.4375 2294.5656,42.75 L2294.3938,42.6719 Z " fill="#000000"/><text fill="#000000" font-family="sans-serif" font-size="14" lengthAdjust="spacing" textLength="145" x="2309.95" y="51.8467">AbstractHistograma</text><line style="stroke:#181818;stroke-width:0.5;" x1="2260.5" x2="2474.5" y1="63" y2="63"/><ellipse cx="2270.5" cy="76.6484" fill="none" rx="3" ry="3" style="stroke:#038048;stroke-width:1.0;"/><text fill="#000000" font-family="sans-serif" font-size="14" lengthAdjust="spacing" textLength="76" x="2279.5" y="79.9951">datos: Any</text><line style="stroke:#181818;stroke-width:0.5;" x1="2260.5" x2="2474.5" y1="87.2969" y2="87.2969"/><ellipse cx="2270.5" cy="100.9453" fill="#84BE84" rx="3" ry="3" style="stroke:#038048;stroke-width:1.0;"/><text fill="#000000" font-family="sans-serif" font-size="14" font-style="italic" lengthAdjust="spacing" textLength="190" x="2279.5" y="104.292">graficar_histograma(): Any</text></g><!--class ConcreteHistograma_HSol--><g id="elem_ConcreteHistograma_HSol"><rect codeLine="67" fill="#F1F1F1" height="64.2969" id="ConcreteHistograma_HSol" rx="2.5" ry="2.5" style="stroke:#181818;stroke-width:0.5;" width="220" x="2124.5" y="220.5"/><ellipse cx="2139.5" cy="236.5" fill="#ADD1B2" rx="11" ry="11" style="stroke:#181818;stroke-width:1.0;"/><path d="M2141.8438,232.1719 C2140.9063,231.7344 2140.3125,231.5938 2139.4375,231.5938 C2136.8125,231.5938 2134.8125,233.6719 2134.8125,236.3906 L2134.8125,237.5156 C2134.8125,240.0938 2136.9219,241.9844 2139.8125,241.9844 C2141.0313,241.9844 2142.1875,241.6875 2142.9375,241.1406 C2143.5156,240.7344 2143.8438,240.2813 2143.8438,239.8906 C2143.8438,239.4375 2143.4531,239.0469 2142.9844,239.0469 C2142.7656,239.0469 2142.5625,239.125 2142.375,239.3125 C2141.9219,239.7969 2141.9219,239.7969 2141.7344,239.8906 C2141.3125,240.1563 2140.625,240.2813 2139.8594,240.2813 C2137.8125,240.2813 2136.5156,239.1875 2136.5156,237.4844 L2136.5156,236.3906 C2136.5156,234.6094 2137.7656,233.2969 2139.5,233.2969 C2140.0781,233.2969 2140.6875,233.4531 2141.1563,233.7031 C2141.6406,233.9844 2141.8125,234.2031 2141.9063,234.6094 C2141.9688,235.0156 2142,235.1406 2142.1406,235.2656 C2142.2813,235.4063 2142.5156,235.5156 2142.7344,235.5156 C2143,235.5156 2143.2656,235.375 2143.4375,235.1563 C2143.5469,235 2143.5781,234.8125 2143.5781,234.3906 L2143.5781,232.9688 C2143.5781,232.5313 2143.5625,232.4063 2143.4688,232.25 C2143.3125,231.9844 2143.0313,231.8438 2142.7344,231.8438 C2142.4375,231.8438 2142.2344,231.9375 2142.0156,232.25 L2141.8438,232.1719 Z " fill="#000000"/><text fill="#000000" font-family="sans-serif" font-size="14" lengthAdjust="spacing" textLength="188" x="2153.5" y="241.3467">ConcreteHistograma_HSol</text><line style="stroke:#181818;stroke-width:0.5;" x1="2125.5" x2="2343.5" y1="252.5" y2="252.5"/><line style="stroke:#181818;stroke-width:0.5;" x1="2125.5" x2="2343.5" y1="260.5" y2="260.5"/><ellipse cx="2135.5" cy="274.1484" fill="#84BE84" rx="3" ry="3" style="stroke:#038048;stroke-width:1.0;"/><text fill="#000000" font-family="sans-serif" font-size="14" lengthAdjust="spacing" textLength="189" x="2144.5" y="277.4951">graficar_histograma(): Any</text></g><!--class ConcreteHistograma_HInterv--><g id="elem_ConcreteHistograma_HInterv"><rect codeLine="71" fill="#F1F1F1" height="64.2969" id="ConcreteHistograma_HInterv" rx="2.5" ry="2.5" style="stroke:#181818;stroke-width:0.5;" width="241" x="2380" y="220.5"/><ellipse cx="2395" cy="236.5" fill="#ADD1B2" rx="11" ry="11" style="stroke:#181818;stroke-width:1.0;"/><path d="M2397.3438,232.1719 C2396.4063,231.7344 2395.8125,231.5938 2394.9375,231.5938 C2392.3125,231.5938 2390.3125,233.6719 2390.3125,236.3906 L2390.3125,237.5156 C2390.3125,240.0938 2392.4219,241.9844 2395.3125,241.9844 C2396.5313,241.9844 2397.6875,241.6875 2398.4375,241.1406 C2399.0156,240.7344 2399.3438,240.2813 2399.3438,239.8906 C2399.3438,239.4375 2398.9531,239.0469 2398.4844,239.0469 C2398.2656,239.0469 2398.0625,239.125 2397.875,239.3125 C2397.4219,239.7969 2397.4219,239.7969 2397.2344,239.8906 C2396.8125,240.1563 2396.125,240.2813 2395.3594,240.2813 C2393.3125,240.2813 2392.0156,239.1875 2392.0156,237.4844 L2392.0156,236.3906 C2392.0156,234.6094 2393.2656,233.2969 2395,233.2969 C2395.5781,233.2969 2396.1875,233.4531 2396.6563,233.7031 C2397.1406,233.9844 2397.3125,234.2031 2397.4063,234.6094 C2397.4688,235.0156 2397.5,235.1406 2397.6406,235.2656 C2397.7813,235.4063 2398.0156,235.5156 2398.2344,235.5156 C2398.5,235.5156 2398.7656,235.375 2398.9375,235.1563 C2399.0469,235 2399.0781,234.8125 2399.0781,234.3906 L2399.0781,232.9688 C2399.0781,232.5313 2399.0625,232.4063 2398.9688,232.25 C2398.8125,231.9844 2398.5313,231.8438 2398.2344,231.8438 C2397.9375,231.8438 2397.7344,231.9375 2397.5156,232.25 L2397.3438,232.1719 Z " fill="#000000"/><text fill="#000000" font-family="sans-serif" font-size="14" lengthAdjust="spacing" textLength="209" x="2409" y="241.3467">ConcreteHistograma_HInterv</text><line style="stroke:#181818;stroke-width:0.5;" x1="2381" x2="2620" y1="252.5" y2="252.5"/><line style="stroke:#181818;stroke-width:0.5;" x1="2381" x2="2620" y1="260.5" y2="260.5"/><ellipse cx="2391" cy="274.1484" fill="#84BE84" rx="3" ry="3" style="stroke:#038048;stroke-width:1.0;"/><text fill="#000000" font-family="sans-serif" font-size="14" lengthAdjust="spacing" textLength="189" x="2400" y="277.4951">graficar_histograma(): Any</text></g><!--reverse link AbstractFactory to ConcreteFactory_HSolicitud--><g id="link_AbstractFactory_ConcreteFactory_HSolicitud"><path codeLine="75" d="M279.2078,148.6643 C259.1688,168.1583 250.189,176.895 230.738,195.818 " fill="none" id="AbstractFactory-backto-ConcreteFactory_HSolicitud" style="stroke:#181818;stroke-width:1.0;"/><polygon fill="none" points="292.11,136.113,275.0241,144.3635,283.3916,152.965,292.11,136.113" style="stroke:#181818;stroke-width:1.0;"/></g><!--reverse link AbstractFactory to ConcreteFactory_HIntervencion--><g id="link_AbstractFactory_ConcreteFactory_HIntervencion"><path codeLine="76" d="M435.7922,148.6643 C455.8312,168.1583 464.811,176.895 484.262,195.818 " fill="none" id="AbstractFactory-backto-ConcreteFactory_HIntervencion" style="stroke:#181818;stroke-width:1.0;"/><polygon fill="none" points="422.89,136.113,431.6084,152.965,439.9759,144.3635,422.89,136.113" style="stroke:#181818;stroke-width:1.0;"/></g><!--reverse link AbstractMedia to ConcreteMedia_HSol--><g id="link_AbstractMedia_ConcreteMedia_HSol"><path codeLine="78" d="M911.8131,127.4467 C891.2011,160.0967 872.018,190.485 853.076,220.4898 " fill="none" id="AbstractMedia-backto-ConcreteMedia_HSol" style="stroke:#181818;stroke-width:1.0;"/><polygon fill="none" points="921.422,112.226,906.7396,124.2438,916.8867,130.6497,921.422,112.226" style="stroke:#181818;stroke-width:1.0;"/></g><!--reverse link AbstractMedia to ConcreteMedia_HInterv--><g id="link_AbstractMedia_ConcreteMedia_HInterv"><path codeLine="79" d="M981.1869,127.4467 C1001.7989,160.0967 1020.98,190.485 1039.92,220.4898 " fill="none" id="AbstractMedia-backto-ConcreteMedia_HInterv" style="stroke:#181818;stroke-width:1.0;"/><polygon fill="none" points="971.578,112.226,976.1133,130.6497,986.2604,124.2438,971.578,112.226" style="stroke:#181818;stroke-width:1.0;"/></g><!--reverse link AbstractMediana to ConcreteMediana_HSol--><g id="link_AbstractMediana_ConcreteMediana_HSol"><path codeLine="81" d="M1377.5697,127.1387 C1355.4997,159.7887 1334.74,190.485 1314.46,220.4898 " fill="none" id="AbstractMediana-backto-ConcreteMediana_HSol" style="stroke:#181818;stroke-width:1.0;"/><polygon fill="none" points="1387.65,112.226,1372.5988,123.7785,1382.5406,130.4988,1387.65,112.226" style="stroke:#181818;stroke-width:1.0;"/></g><!--reverse link AbstractMediana to ConcreteMediana_HInterv--><g id="link_AbstractMediana_ConcreteMediana_HInterv"><path codeLine="82" d="M1451.7165,127.1005 C1473.9665,159.7505 1494.91,190.485 1515.36,220.4898 " fill="none" id="AbstractMediana-backto-ConcreteMediana_HInterv" style="stroke:#181818;stroke-width:1.0;"/><polygon fill="none" points="1441.58,112.226,1446.7584,130.4793,1456.6747,123.7217,1441.58,112.226" style="stroke:#181818;stroke-width:1.0;"/></g><!--reverse link AbstractModa to ConcreteModa_HSol--><g id="link_AbstractModa_ConcreteModa_HSol"><path codeLine="84" d="M1845.3827,127.5228 C1825.1327,160.1728 1806.34,190.485 1787.73,220.4898 " fill="none" id="AbstractModa-backto-ConcreteModa_HSol" style="stroke:#181818;stroke-width:1.0;"/><polygon fill="none" points="1854.87,112.226,1840.2838,124.3604,1850.4816,130.6852,1854.87,112.226" style="stroke:#181818;stroke-width:1.0;"/></g><!--reverse link AbstractModa to ConcreteModa_HInterv--><g id="link_AbstractModa_ConcreteModa_HInterv"><path codeLine="85" d="M1913.6173,127.5228 C1933.8673,160.1728 1952.66,190.485 1971.27,220.4898 " fill="none" id="AbstractModa-backto-ConcreteModa_HInterv" style="stroke:#181818;stroke-width:1.0;"/><polygon fill="none" points="1904.13,112.226,1908.5184,130.6852,1918.7162,124.3604,1904.13,112.226" style="stroke:#181818;stroke-width:1.0;"/></g><!--reverse link AbstractHistograma to ConcreteHistograma_HSol--><g id="link_AbstractHistograma_ConcreteHistograma_HSol"><path codeLine="87" d="M2327.2445,126.6742 C2302.9845,159.3242 2279.84,190.485 2257.54,220.4898 " fill="none" id="AbstractHistograma-backto-ConcreteHistograma_HSol" style="stroke:#181818;stroke-width:1.0;"/><polygon fill="none" points="2337.98,112.226,2322.4285,123.0957,2332.0606,130.2527,2337.98,112.226" style="stroke:#181818;stroke-width:1.0;"/></g><!--reverse link AbstractHistograma to ConcreteHistograma_HInterv--><g id="link_AbstractHistograma_ConcreteHistograma_HInterv"><path codeLine="88" d="M2407.7555,126.6742 C2432.0155,159.3242 2455.16,190.485 2477.46,220.4898 " fill="none" id="AbstractHistograma-backto-ConcreteHistograma_HInterv" style="stroke:#181818;stroke-width:1.0;"/><polygon fill="none" points="2397.02,112.226,2402.9394,130.2527,2412.5715,123.0957,2397.02,112.226" style="stroke:#181818;stroke-width:1.0;"/></g><!--SRC=[rPHDRi8m48NtEOMNhH0NGDsWIWWMNVK0o4pSOYcC9TiW8ShTCKaWyR_3heiidBptPZvxOcYeKcIvKrfIq2lp27acbugG6Qcf5cf1bdWsomljDLVp1MW3nuRAxO7LdBwzBvu9N_SNQJdw1lGilvB-S32MFLTQcDN1SgsVR-ErH6qNCklgMbNG4dyA1Caqwuctws_HSE3wMFVmUSHIhbnFP19kd623ciaJG-02_mk4LUYLiJCYRqVQiFP4uzkGy7NxM6PrDceY0MPwmGH5YJT1WWaMSvuJG1xJ4Ep4V0mZv5sHvaD6VyAo_STcDTJF43jcUJN1uag7kDVonzzydhYv2lNZUsAeqVs1bcFuZmfKNQgJXo4jXZAZIY_tFfssz35aMOsRDPeNI-qS-2HzL-C6]--></g></svg>